<svg width="25" height="24" viewBox="0 0 25 24" fill="none" xmlns="http://www.w3.org/2000/svg"><path d="M9.45883 7.81606C9.43987 8.04147 9.11187 8.09847 9.00637 7.89468L8.4383 6.79755C8.40156 6.72646 8.3267 6.67895 8.24205 6.6728L6.9348 6.57797C6.69196 6.56037 6.63057 6.25589 6.85011 6.15794L8.03191 5.63061C8.10844 5.59645 8.15973 5.52703 8.16628 5.44842L8.26845 4.23482C8.28741 4.00941 8.61541 3.95241 8.7209 4.1562L9.28897 5.25334C9.32571 5.32443 9.40048 5.37195 9.48523 5.37808L10.7925 5.47291C11.0353 5.49051 11.0967 5.79499 10.8772 5.89294L9.69536 6.42027C9.61874 6.45445 9.56755 6.52385 9.56099 6.60247L9.45883 7.81606Z" fill="white"/><path d="M5.70599 8.6442C5.67434 8.75336 5.50749 8.75336 5.47583 8.6442L5.30536 8.05649C5.29435 8.01841 5.26227 7.98867 5.22127 7.97842L4.58821 7.82018C4.4706 7.79079 4.4706 7.63591 4.58821 7.60652L5.22127 7.44828C5.26227 7.43802 5.29435 7.40828 5.30536 7.37021L5.47583 6.78249C5.50749 6.67333 5.67434 6.67333 5.70599 6.78249L5.87646 7.37021C5.88747 7.40828 5.91951 7.43802 5.96055 7.44828L6.59362 7.60652C6.71122 7.63591 6.71122 7.79079 6.59362 7.82018L5.96055 7.97842C5.91951 7.98867 5.88747 8.01841 5.87646 8.05649L5.70599 8.6442Z" fill="white"/><path d="M7.88781 12.0199C7.85615 12.1291 7.68931 12.1291 7.65765 12.0199L7.48718 11.4322C7.47617 11.3941 7.44409 11.3644 7.40309 11.3541L6.77002 11.1959C6.65242 11.1665 6.65242 11.0116 6.77002 10.9822L7.40309 10.824C7.44409 10.8138 7.47617 10.784 7.48718 10.7459L7.65765 10.1582C7.68931 10.0491 7.85615 10.0491 7.88781 10.1582L8.05828 10.7459C8.06929 10.784 8.10132 10.8138 8.14237 10.824L8.77544 10.9822C8.89304 11.0116 8.89304 11.1665 8.77544 11.1959L8.14237 11.3541C8.10132 11.3644 8.06929 11.3941 8.05828 11.4322L7.88781 12.0199Z" fill="white"/><path d="M6.03127 10.6969C6.01016 10.7697 5.89893 10.7697 5.87783 10.6969L5.76418 10.3051C5.75684 10.2797 5.73545 10.2599 5.70812 10.2531L5.28608 10.1476C5.20767 10.128 5.20767 10.0247 5.28608 10.0052L5.70812 9.89966C5.73545 9.89282 5.75684 9.873 5.76418 9.84761L5.87783 9.4558C5.89893 9.38303 6.01016 9.38303 6.03127 9.4558L6.14491 9.84761C6.15225 9.873 6.17361 9.89282 6.20097 9.89966L6.62302 10.0052C6.70142 10.0247 6.70142 10.128 6.62302 10.1476L6.20097 10.2531C6.17361 10.2599 6.15225 10.2797 6.14491 10.3051L6.03127 10.6969Z" fill="white"/><path d="M11.1222 9.34666C11.1011 9.41944 10.9898 9.41944 10.9687 9.34666L10.8551 8.95485C10.8478 8.92947 10.8264 8.90964 10.799 8.90281L10.377 8.79731C10.2986 8.77772 10.2986 8.67447 10.377 8.65487L10.799 8.54938C10.8264 8.54254 10.8478 8.52272 10.8551 8.49733L10.9687 8.10552C10.9898 8.03275 11.1011 8.03275 11.1222 8.10552L11.2358 8.49733C11.2432 8.52272 11.2645 8.54254 11.2919 8.54938L11.7139 8.65487C11.7923 8.67447 11.7923 8.77772 11.7139 8.79731L11.2919 8.90281C11.2645 8.90964 11.2432 8.92947 11.2358 8.95485L11.1222 9.34666Z" fill="white"/><path d="M18.3182 17.503L17.5909 18.1782M8.15778 8.54228L19.9624 18.5877C20.2555 18.8371 20.2654 19.2629 19.9843 19.5239V19.5239C19.7043 19.7839 19.2496 19.7777 18.9805 19.508C14.9047 15.4231 7.72842 8.20747 8.15778 8.54228Z" stroke="white"/></svg>
